# xmcd
#
# Track frame offsets:
#	150
#	12420
#	24119
#	37451
#	49258
#	63771
#	76511
#	87872
#	100319
#	113198
#	124754
#	134645
#	145494
#	157865
#	169860
#	180026
#	201115
#	214067
#	225191
#	237489
#	249456
#	263189
#	272899
#	287994
#	297624
#	308480
#	321443
#
# Disc length: 4512 seconds
#
# Revision: 2
# Processed by: cddbd v1.5.2PL0 Copyright (c) Steve Scherf et al.
# Submitted via: audiograbber 1.83.01
#
DISCID=83119e1b
DTITLE=Conway Twitty - Classic Country
DYEAR=1900
DGENRE=Country
TTITLE0=Linda On My Mind
TTITLE1=Guess My Eyes Were Bigger Than My Heart
TTITLE2=The Image Of Me
TTITLE3=Darling, You Know I Wouldn't lie
TTITLE4=Fifteen Years Ago
TTITLE5=She Needs Smoeone To Hold Her
TTITLE6=This Time I've Hurt Her More
TTITLE7=Don't Put Your Hurt In My Heart
TTITLE8=Working Girl
TTITLE9=Funny, But I'm Not Laughting
TTITLE10=I Don't Want To With Me
TTITLE11=Look Into My Teardrops
TTITLE12=If You Were Mine To Lose
TTITLE13=What Am I Living For
TTITLE14=I'll Try
TTITLE15=Falling For You For Years
TTITLE16=Next In Line
TTITLE17=Desperado Love
TTITLE18=To See My Angel Cry
TTITLE19=Another Mans Woman
TTITLE20=Between Blue Eyes And Jeans
TTITLE21=I'm Checking out
TTITLE22=I Told My World To Go Away
TTITLE23=Bad Girl
TTITLE24=Boogie Grass Band
TTITLE25=Tight Fitting Jeans
TTITLE26=She's Got A Single Thing O(n Her Mind
EXTD=
EXTT0=
EXTT1=
EXTT2=
EXTT3=
EXTT4=
EXTT5=
EXTT6=
EXTT7=
EXTT8=
EXTT9=
EXTT10=
EXTT11=
EXTT12=
EXTT13=
EXTT14=
EXTT15=
EXTT16=
EXTT17=
EXTT18=
EXTT19=
EXTT20=
EXTT21=
EXTT22=
EXTT23=
EXTT24=
EXTT25=
EXTT26=
PLAYORDER=
